<svg width="600" height="668" viewBox="0 0 600 668" fill="none" xmlns="http://www.w3.org/2000/svg">
<path d="M266.667 0.666687V69.9834C154.017 86.1334 66.6667 182.4 66.6667 298.1V500.667H0V567.333H200C200 622.567 244.767 667.333 300 667.333C355.233 667.333 400 622.567 400 567.333H600V500.667H533.333V298.1C533.333 234.633 507.083 176.95 464.883 135.017C429.983 100.667 384.2 77.2834 333.333 69.9834V0.666687H266.667ZM300 600.667C281.617 600.667 266.667 585.717 266.667 567.333H333.333C333.333 585.717 318.383 600.667 300 600.667ZM417.9 182.317C449.35 213.567 466.667 254.683 466.667 298.1V500.667H133.333V298.1C133.333 207.617 208.1 134 300 134C344.383 134 386.333 151.233 417.9 182.317Z" fill="white"/>
</svg>
