<svg width="664" height="664" viewBox="0 0 664 664" fill="none" xmlns="http://www.w3.org/2000/svg">
<path d="M431.857 19.9992C457.894 -6.03595 500.104 -6.03595 526.141 19.9992L643.991 137.851C670.027 163.886 670.027 206.097 643.991 232.131L271.401 604.723C267.336 608.787 262.289 611.731 256.752 613.27L85.1242 660.944C35.1524 674.823 -10.8344 628.837 3.04688 578.867L50.7211 407.241C52.2588 401.702 55.2031 396.655 59.268 392.591L431.857 19.9992ZM596.85 184.991L479 67.1398L129.978 416.16L247.829 534.01L596.85 184.991V184.991ZM183.862 564.327L99.6641 480.127L67.2805 596.71L183.862 564.327Z" fill="white" stroke="white" stroke-width="0.78125"/>
</svg>
